<svg width="42" height="42" viewBox="0 0 42 42" fill="none" xmlns="http://www.w3.org/2000/svg">
<rect width="42" height="42" rx="13.8706" fill="white"/>
<rect width="42" height="42" rx="13.8706" fill="url(#paint0_linear_4973_28253)"/>
<g filter="url(#filter0_d_4973_28253)">
<path fill-rule="evenodd" clip-rule="evenodd" d="M8.6422 15.4528C7.64989 16.2095 7.06756 17.386 7.06756 18.6339V30.0526C7.06756 32.704 9.21693 34.8534 11.8683 34.8534H30.1091C32.7605 34.8534 34.9098 32.704 34.9098 30.0526V18.6339C34.9098 17.386 34.3275 16.2095 33.3352 15.4528L23.4147 7.88724C21.9819 6.79458 19.9955 6.79458 18.5627 7.88724L8.6422 15.4528ZM10.1611 18.1703V30.2198C10.1611 31.1036 10.8776 31.8201 11.7614 31.8201H30.216C31.0998 31.8201 31.8162 31.1036 31.8162 30.2198V18.1703L22.8247 24.4676C21.7224 25.2396 20.255 25.2396 19.1527 24.4676L10.1611 18.1703Z" fill="white"/>
</g>
<defs>
<filter id="filter0_d_4973_28253" x="4.92591" y="5.35438" width="32.1257" height="32.069" filterUnits="userSpaceOnUse" color-interpolation-filters="sRGB">
<feFlood flood-opacity="0" result="BackgroundImageFix"/>
<feColorMatrix in="SourceAlpha" type="matrix" values="0 0 0 0 0 0 0 0 0 0 0 0 0 0 0 0 0 0 127 0" result="hardAlpha"/>
<feOffset dy="0.428343"/>
<feGaussianBlur stdDeviation="1.07086"/>
<feComposite in2="hardAlpha" operator="out"/>
<feColorMatrix type="matrix" values="0 0 0 0 0 0 0 0 0 0 0 0 0 0 0 0 0 0 0.1 0"/>
<feBlend mode="normal" in2="BackgroundImageFix" result="effect1_dropShadow_4973_28253"/>
<feBlend mode="normal" in="SourceGraphic" in2="effect1_dropShadow_4973_28253" result="shape"/>
</filter>
<linearGradient id="paint0_linear_4973_28253" x1="5.88971" y1="37.5871" x2="41.0138" y2="2.03463" gradientUnits="userSpaceOnUse">
<stop stop-color="#1E91FF"/>
<stop offset="0.997303" stop-color="#2ED9FF"/>
</linearGradient>
</defs>
</svg>
