<svg width="237" height="34" viewBox="0 0 237 34" fill="none" xmlns="http://www.w3.org/2000/svg">
<g clip-path="url(#clip0_1633_13511)">
<path d="M133.892 27.3151C132.219 27.3151 130.695 26.9207 129.318 26.1318C127.957 25.3266 126.883 24.242 126.097 22.878C125.31 21.514 124.916 20.0186 124.916 18.3917C124.916 16.7484 125.293 15.2447 126.047 13.8808C126.818 12.5003 127.883 11.4157 129.244 10.6269C130.605 9.8217 132.154 9.4191 133.892 9.4191C135.285 9.4191 136.482 9.6409 137.482 10.0846C138.498 10.5119 139.4 11.1939 140.187 12.1306L137.753 14.2505C136.72 13.1659 135.432 12.6236 133.892 12.6236C132.81 12.6236 131.859 12.8865 131.039 13.4124C130.219 13.9218 129.588 14.6202 129.146 15.5077C128.703 16.3786 128.482 17.34 128.482 18.3917C128.482 19.4434 128.703 20.4048 129.146 21.2758C129.605 22.1468 130.244 22.837 131.064 23.3464C131.9 23.8558 132.867 24.1106 133.965 24.1106C135.572 24.1106 136.883 23.5518 137.9 22.4344L140.408 24.5789C139.72 25.417 138.818 26.0826 137.703 26.5755C136.605 27.0686 135.335 27.3151 133.892 27.3151ZM146.674 27.3151C145.527 27.3151 144.469 27.0193 143.502 26.4277C142.535 25.8196 141.764 25.0061 141.19 23.9873C140.633 22.9684 140.354 21.851 140.354 20.6348C140.354 19.4188 140.633 18.3013 141.19 17.2824C141.764 16.2472 142.535 15.4255 143.502 14.8175C144.469 14.2094 145.527 13.9054 146.674 13.9054C147.723 13.9054 148.567 14.1026 149.207 14.497C149.862 14.8914 150.371 15.4584 150.731 16.1979V14.1766H154.026V26.9946H150.805V24.8993C150.428 25.6717 149.912 26.2716 149.256 26.6988C148.617 27.1096 147.756 27.3151 146.674 27.3151ZM143.674 20.6102C143.674 21.2676 143.821 21.8838 144.117 22.459C144.428 23.0177 144.846 23.4696 145.371 23.8147C145.912 24.1434 146.527 24.3077 147.215 24.3077C147.92 24.3077 148.543 24.1434 149.084 23.8147C149.641 23.486 150.068 23.0424 150.363 22.4836C150.658 21.9249 150.805 21.3086 150.805 20.6348C150.805 19.9611 150.658 19.3449 150.363 18.7861C150.068 18.2109 149.641 17.759 149.084 17.4304C148.543 17.0853 147.92 16.9127 147.215 16.9127C146.527 16.9127 145.912 17.0853 145.371 17.4304C144.83 17.759 144.412 18.2027 144.117 18.7615C143.821 19.3202 143.674 19.9365 143.674 20.6102ZM155.999 9H159.319V26.9946H155.999V9ZM167.405 27.3151C166.11 27.3151 164.962 27.0193 163.962 26.4277C162.962 25.8196 162.184 25.0061 161.627 23.9873C161.069 22.9684 160.791 21.8427 160.791 20.6102C160.791 19.3942 161.077 18.2685 161.651 17.2332C162.225 16.1979 163.012 15.3762 164.012 14.7681C165.029 14.1601 166.159 13.8561 167.405 13.8561C168.651 13.8561 169.766 14.1601 170.749 14.7681C171.749 15.3762 172.52 16.1979 173.061 17.2332C173.618 18.2521 173.897 19.3777 173.897 20.6102C173.897 21.0211 173.865 21.4155 173.799 21.7934H164.233C164.43 22.5658 164.798 23.1903 165.34 23.6669C165.897 24.1269 166.586 24.3571 167.405 24.3571C168.094 24.3571 168.708 24.2009 169.25 23.8887C169.791 23.56 170.217 23.1409 170.528 22.6315L173.11 24.5789C172.586 25.4006 171.815 26.0661 170.799 26.5755C169.782 27.0686 168.651 27.3151 167.405 27.3151ZM170.553 19.3037C170.356 18.5643 169.971 17.948 169.397 17.455C168.823 16.962 168.143 16.7155 167.356 16.7155C166.586 16.7155 165.913 16.9538 165.34 17.4304C164.782 17.907 164.413 18.5314 164.233 19.3037H170.553ZM175.355 14.1766H178.625V16.0499C179.297 14.6038 180.6 13.8808 182.535 13.8808C183.453 13.8808 184.281 14.1026 185.019 14.5463C185.757 14.9736 186.339 15.5898 186.764 16.395C187.191 17.1839 187.404 18.1041 187.404 19.1559V26.9946H184.084V19.9693C184.084 18.9011 183.838 18.1041 183.346 17.5783C182.855 17.0524 182.182 16.7895 181.33 16.7895C180.576 16.7895 179.945 17.0606 179.436 17.6029C178.928 18.1288 178.674 18.9176 178.674 19.9693V26.9946H175.355V14.1766ZM195.087 27.3151C193.939 27.3151 192.882 27.0193 191.915 26.4277C190.947 25.8196 190.177 25.0061 189.603 23.9873C189.046 22.9684 188.767 21.851 188.767 20.6348C188.767 19.4188 189.046 18.3013 189.603 17.2824C190.177 16.2472 190.947 15.4255 191.915 14.8175C192.882 14.2094 193.939 13.9054 195.087 13.9054C196.136 13.9054 196.98 14.1026 197.62 14.497C198.259 14.875 198.759 15.4255 199.12 16.1486V9H202.439V26.9946H199.218V24.8993C198.841 25.6717 198.325 26.2716 197.669 26.6988C197.03 27.1096 196.169 27.3151 195.087 27.3151ZM192.087 20.6102C192.087 21.2676 192.234 21.8838 192.529 22.459C192.841 23.0177 193.259 23.4696 193.783 23.8147C194.325 24.1434 194.939 24.3077 195.628 24.3077C196.333 24.3077 196.956 24.1434 197.497 23.8147C198.054 23.486 198.48 23.0424 198.776 22.4836C199.071 21.9249 199.218 21.3086 199.218 20.6348C199.218 19.9611 199.071 19.3449 198.776 18.7861C198.48 18.2109 198.054 17.759 197.497 17.4304C196.956 17.0853 196.333 16.9127 195.628 16.9127C194.939 16.9127 194.325 17.0853 193.783 17.4304C193.242 17.759 192.824 18.2027 192.529 18.7615C192.234 19.3202 192.087 19.9365 192.087 20.6102ZM210.24 27.3151C209.092 27.3151 208.035 27.0193 207.068 26.4277C206.101 25.8196 205.33 25.0061 204.756 23.9873C204.199 22.9684 203.92 21.851 203.92 20.6348C203.92 19.4188 204.199 18.3013 204.756 17.2824C205.33 16.2472 206.101 15.4255 207.068 14.8175C208.035 14.2094 209.092 13.9054 210.24 13.9054C211.289 13.9054 212.133 14.1026 212.773 14.497C213.429 14.8914 213.937 15.4584 214.297 16.1979V14.1766H217.593V26.9946H214.371V24.8993C213.994 25.6717 213.478 26.2716 212.822 26.6988C212.182 27.1096 211.322 27.3151 210.24 27.3151ZM207.24 20.6102C207.24 21.2676 207.387 21.8838 207.683 22.459C207.994 23.0177 208.412 23.4696 208.937 23.8147C209.478 24.1434 210.092 24.3077 210.781 24.3077C211.486 24.3077 212.108 24.1434 212.65 23.8147C213.207 23.486 213.633 23.0424 213.928 22.4836C214.223 21.9249 214.371 21.3086 214.371 20.6348C214.371 19.9611 214.223 19.3449 213.928 18.7861C213.633 18.2109 213.207 17.759 212.65 17.4304C212.108 17.0853 211.486 16.9127 210.781 16.9127C210.092 16.9127 209.478 17.0853 208.937 17.4304C208.395 17.759 207.977 18.2027 207.683 18.7615C207.387 19.3202 207.24 19.9365 207.24 20.6102ZM219.565 14.1766H222.787V16.6169C223.016 15.6802 223.459 14.9736 224.114 14.497C224.787 14.0204 225.663 13.815 226.745 13.8808V17.0113H226.278C225.295 17.0113 224.483 17.3236 223.844 17.948C223.205 18.556 222.884 19.3859 222.884 20.4377V26.9946H219.565V14.1766Z" fill="url(#paint0_linear_1633_13511)"/>
<rect x="-7.62939e-06" y="2.39647" width="29.3725" height="29.3725" rx="9.70035" fill="white"/>
<rect x="-7.62939e-06" y="2.39647" width="29.3725" height="29.3725" rx="9.70035" fill="url(#paint1_linear_1633_13511)"/>
<g filter="url(#filter0_d_1633_13511)">
<path fill-rule="evenodd" clip-rule="evenodd" d="M9.97236 8.22761C9.80237 8.13657 9.60121 8.0881 9.33168 8.0881H9.24639C8.97686 8.0881 8.7757 8.13657 8.60571 8.22761C8.43572 8.31858 8.30228 8.45218 8.21142 8.62237C8.1205 8.79256 8.07208 8.99397 8.07208 9.26383L8.07293 9.65885C7.67449 9.75111 7.37645 9.87835 7.0773 10.0386C6.39734 10.4026 5.86369 10.9369 5.50004 11.6177C5.13641 12.2984 4.94275 12.9737 4.94275 14.8359V20.8351C4.94275 22.6973 5.13641 23.3726 5.50004 24.0533C5.86369 24.7341 6.39734 25.2684 7.0773 25.6324C7.75725 25.9965 8.43163 26.1904 10.2915 26.1904H19.0653C20.9252 26.1904 21.5996 25.9965 22.2796 25.6324C22.9595 25.2684 23.4931 24.7341 23.8568 24.0533C24.2205 23.3726 24.4141 22.6973 24.4141 20.8351V14.8359C24.4141 12.9737 24.2205 12.2984 23.8568 11.6177C23.4931 10.9369 22.9595 10.4026 22.2796 10.0386C21.9807 9.87855 21.683 9.75137 21.2852 9.65917L21.2848 9.26383C21.2848 8.99397 21.2364 8.79256 21.1454 8.62237C21.0545 8.45218 20.9211 8.31858 20.7511 8.22761C20.5812 8.13657 20.3799 8.0881 20.1105 8.0881H20.0252C19.7556 8.0881 19.5545 8.13657 19.3845 8.22761C19.2145 8.31858 19.0811 8.45218 18.9901 8.62237C18.8993 8.79256 18.8509 8.99397 18.8509 9.26383V9.48054L10.506 9.47918V9.26383C10.506 8.99397 10.4576 8.79256 10.3666 8.62237C10.2758 8.45218 10.1423 8.31858 9.97236 8.22761ZM8.53559 14.7024H20.8213C21.2242 14.7024 21.3704 14.7444 21.5177 14.8233C21.665 14.9022 21.7806 15.0179 21.8594 15.1655C21.9382 15.313 21.9802 15.4593 21.9802 15.8627V22.1487L21.9708 22.3232C21.8839 23.1255 21.205 23.7501 20.3772 23.7501L9.42318 23.726L9.202 23.7227C8.65373 23.707 8.42412 23.6342 8.19289 23.51C7.93281 23.3702 7.72874 23.1655 7.58973 22.9047C7.45065 22.644 7.37664 22.3855 7.37664 21.6725V15.8627L7.37923 15.7048C7.38941 15.4174 7.42991 15.2919 7.49744 15.1655C7.57618 15.0179 7.6918 14.9022 7.83917 14.8233C7.98647 14.7444 8.13261 14.7024 8.53559 14.7024ZM18.9045 16.443H18.1018C17.6368 16.443 17.4683 16.4915 17.2983 16.5825C17.1283 16.6735 16.9949 16.8071 16.9039 16.9773C16.8131 17.1475 16.7647 17.3163 16.7647 17.7818V18.5854C16.7647 19.0509 16.8131 19.2198 16.9039 19.39C16.9949 19.5602 17.1283 19.6937 17.2983 19.7847C17.4683 19.8758 17.6368 19.9242 18.1018 19.9242H18.9045C19.3695 19.9242 19.538 19.8758 19.708 19.7847C19.878 19.6937 20.0114 19.5602 20.1024 19.39C20.1932 19.2198 20.2416 19.0509 20.2416 18.5854V17.7818C20.2416 17.3163 20.1932 17.1475 20.1024 16.9773C20.0114 16.8071 19.878 16.6735 19.708 16.5825C19.538 16.4915 19.3695 16.443 18.9045 16.443Z" fill="white"/>
</g>
<path d="M42.1463 28V11.885H36.5314V8.34762H51.6918V11.885H46.0768V28H42.1463ZM53.5083 28L48.9602 13.4011H53.396L55.277 21.6832C55.4455 22.385 55.6139 23.1711 55.7262 23.9011C55.8385 23.1711 56.0069 22.357 56.2035 21.6551L58.3372 13.4011H62.6888L64.9628 21.6551C65.1593 22.357 65.3278 23.1711 65.4401 23.9011C65.5524 23.1711 65.7208 22.385 65.8893 21.6832L67.9107 13.4011H72.0377L67.4896 28H63.3906L61.0043 19.6899C60.7797 18.988 60.6112 18.23 60.4989 17.5C60.3866 18.23 60.2462 18.988 60.0497 19.6899L57.8599 28H53.5083ZM78.816 28.365C74.8013 28.365 71.6008 24.9679 71.6008 20.7567C71.6008 16.5455 74.8013 13.0923 78.816 13.0923C81.3427 13.0923 82.6622 14.131 83.4483 15.7032V13.4011H87.2104V28H83.5326V25.6136C82.7465 27.2701 81.427 28.365 78.816 28.365ZM75.3909 20.7286C75.3909 22.9465 77.0192 24.9398 79.4336 24.9398C81.9323 24.9398 83.5326 23.0308 83.5326 20.7567C83.5326 18.4826 81.9323 16.5174 79.4336 16.5174C77.0192 16.5174 75.3909 18.4546 75.3909 20.7286ZM99.12 28L93.2524 21.0655V28H89.4623V7.50537H93.2524V19.2968L98.727 13.4011H104.117L97.239 20.1952L104.145 28H99.12ZM110.271 28.365C105.751 28.365 102.719 24.9398 102.719 20.7286C102.719 16.5174 105.891 13.0361 110.271 13.0361C114.651 13.0361 117.683 16.5174 117.683 20.7286C117.683 21.1497 117.655 21.5989 117.57 22.0762H106.649C107.07 23.7888 108.362 24.996 110.271 24.996C111.899 24.996 113.163 24.1537 113.836 23.0308L116.784 25.2487C115.605 27.0735 113.163 28.365 110.271 28.365ZM106.649 19.2407H113.865C113.443 17.6123 112.068 16.2928 110.215 16.2928C108.418 16.2928 107.07 17.5 106.649 19.2407Z" fill="black"/>
</g>
<defs>
<filter id="filter0_d_1633_13511" x="3.44495" y="6.88987" width="22.467" height="21.0979" filterUnits="userSpaceOnUse" color-interpolation-filters="sRGB">
<feFlood flood-opacity="0" result="BackgroundImageFix"/>
<feColorMatrix in="SourceAlpha" type="matrix" values="0 0 0 0 0 0 0 0 0 0 0 0 0 0 0 0 0 0 127 0" result="hardAlpha"/>
<feOffset dy="0.29956"/>
<feGaussianBlur stdDeviation="0.748899"/>
<feComposite in2="hardAlpha" operator="out"/>
<feColorMatrix type="matrix" values="0 0 0 0 0 0 0 0 0 0 0 0 0 0 0 0 0 0 0.1 0"/>
<feBlend mode="normal" in2="BackgroundImageFix" result="effect1_dropShadow_1633_13511"/>
<feBlend mode="normal" in="SourceGraphic" in2="effect1_dropShadow_1633_13511" result="shape"/>
</filter>
<linearGradient id="paint0_linear_1633_13511" x1="167.004" y1="-2.30837" x2="167.004" y2="34.6872" gradientUnits="userSpaceOnUse">
<stop stop-color="#FFB73D"/>
<stop offset="1" stop-color="#F26C32"/>
</linearGradient>
<linearGradient id="paint1_linear_1633_13511" x1="2.77092" y1="31.7533" x2="35.1982" y2="-1.72247" gradientUnits="userSpaceOnUse">
<stop offset="0.286667" stop-color="#FD813C"/>
<stop offset="1" stop-color="#FFF500"/>
</linearGradient>
<clipPath id="clip0_1633_13511">
<rect width="236.502" height="34" fill="white"/>
</clipPath>
</defs>
</svg>
