<svg width="210" height="32" viewBox="0 0 210 32" fill="none" xmlns="http://www.w3.org/2000/svg">
<path d="M5.4703 25V10.3956H0.381649V7.18973H14.121V10.3956H9.03235V25H5.4703ZM15.7673 25L11.6454 11.7695H15.6655L17.3702 19.2753C17.5228 19.9114 17.6755 20.6238 17.7773 21.2853C17.879 20.6238 18.0317 19.8859 18.2098 19.2498L20.1435 11.7695H24.0872L26.1481 19.2498C26.3262 19.8859 26.4789 20.6238 26.5806 21.2853C26.6824 20.6238 26.8351 19.9114 26.9877 19.2753L28.8196 11.7695H32.5598L28.438 25H24.7233L22.5606 17.4688C22.3571 16.8327 22.2044 16.1458 22.1026 15.4842C22.0008 16.1458 21.8736 16.8327 21.6955 17.4688L19.711 25H15.7673ZM38.7027 25.3308C35.0644 25.3308 32.1638 22.2521 32.1638 18.4356C32.1638 14.6192 35.0644 11.4896 38.7027 11.4896C40.9926 11.4896 42.1885 12.431 42.9009 13.8559V11.7695H46.3103V25H42.9772V22.8373C42.2648 24.3385 41.069 25.3308 38.7027 25.3308ZM35.5987 18.4102C35.5987 20.4202 37.0744 22.2267 39.2625 22.2267C41.5269 22.2267 42.9772 20.4965 42.9772 18.4356C42.9772 16.3747 41.5269 14.5937 39.2625 14.5937C37.0744 14.5937 35.5987 16.3493 35.5987 18.4102ZM57.1036 25L51.7859 18.7155V25H48.3511V6.42643H51.7859V17.1126L56.7474 11.7695H61.6325L55.3989 17.9268L61.6579 25H57.1036ZM67.2093 25.3308C63.113 25.3308 60.3651 22.2267 60.3651 18.4102C60.3651 14.5937 63.2402 11.4388 67.2093 11.4388C71.1785 11.4388 73.9263 14.5937 73.9263 18.4102C73.9263 18.7918 73.9009 19.1989 73.8246 19.6315H63.9271C64.3088 21.1835 65.4792 22.2776 67.2093 22.2776C68.685 22.2776 69.83 21.5143 70.4406 20.4965L73.1121 22.5066C72.0435 24.1604 69.83 25.3308 67.2093 25.3308ZM63.9271 17.0617H70.466C70.0844 15.586 68.8377 14.3902 67.1584 14.3902C65.5301 14.3902 64.3088 15.4842 63.9271 17.0617Z" fill="black"/>
<path d="M188.81 25.9546C186.816 25.9546 185.157 25.2928 183.833 23.9691C182.527 22.6455 181.874 21.0129 181.874 19.0716C181.874 17.1302 182.527 15.4976 183.833 14.174C185.157 12.8503 186.816 12.1885 188.81 12.1885C190.152 12.1885 191.352 12.5062 192.411 13.1415C193.487 13.7769 194.326 14.6417 194.926 15.7359L192.94 16.8478C192.552 16.0712 191.996 15.4535 191.272 14.9947C190.566 14.5358 189.746 14.3063 188.81 14.3063C187.451 14.3063 186.339 14.7652 185.475 15.683C184.61 16.6007 184.177 17.7302 184.177 19.0716C184.177 20.4129 184.61 21.5424 185.475 22.4601C186.339 23.3779 187.451 23.8368 188.81 23.8368C189.746 23.8368 190.566 23.6073 191.272 23.1484C191.996 22.6896 192.552 22.0719 192.94 21.2953L194.926 22.4072C194.326 23.5014 193.487 24.3662 192.411 25.0016C191.352 25.6369 190.152 25.9546 188.81 25.9546Z" fill="#97A3B7"/>
<path d="M171.936 25.9549C170.913 25.9549 170.039 25.7696 169.315 25.3989C168.609 25.0107 168.071 24.49 167.7 23.837C167.33 23.1664 167.145 22.4163 167.145 21.5868C167.145 20.1925 167.55 19.1865 168.362 18.5688C169.192 17.9511 170.374 17.6422 171.91 17.6422H176.463V16.6892C176.463 15.4891 176.19 14.6596 175.642 14.2007C175.113 13.7418 174.31 13.5124 173.233 13.5124C172.227 13.5124 171.495 13.7065 171.036 14.0948C170.577 14.4654 170.321 14.889 170.268 15.3655H167.939C167.992 14.6066 168.248 13.936 168.706 13.3536C169.165 12.7535 169.792 12.277 170.586 11.924C171.38 11.571 172.307 11.3945 173.366 11.3945C174.478 11.3945 175.44 11.571 176.251 11.924C177.063 12.2593 177.69 12.7976 178.131 13.5389C178.572 14.2625 178.793 15.2243 178.793 16.4245V22.1162C178.793 22.8575 178.793 23.5105 178.793 24.0753C178.81 24.6224 178.855 25.1607 178.925 25.6901H176.887C176.834 25.2842 176.798 24.9048 176.781 24.5518C176.763 24.1812 176.754 23.7664 176.754 23.3075C176.384 24.0488 175.784 24.6753 174.954 25.1872C174.125 25.699 173.119 25.9549 171.936 25.9549ZM172.439 23.837C173.18 23.837 173.851 23.7046 174.451 23.4399C175.069 23.1752 175.554 22.7869 175.907 22.2751C176.278 21.7633 176.463 21.1367 176.463 20.3955V19.4424H172.307C171.442 19.4424 170.763 19.6189 170.268 19.9719C169.774 20.3072 169.527 20.8455 169.527 21.5868C169.527 22.2398 169.757 22.7781 170.215 23.2016C170.692 23.6252 171.433 23.837 172.439 23.837Z" fill="#97A3B7"/>
<path d="M161.561 25.69V5.83496H163.838V25.69H161.561Z" fill="#97A3B7"/>
<path d="M147.118 31.2228H144.841V12.4532H147.118V14.4917C147.577 13.821 148.221 13.2739 149.05 12.8503C149.897 12.4091 150.806 12.1885 151.777 12.1885C153.612 12.1885 155.148 12.8591 156.383 14.2005C157.636 15.5418 158.263 17.1655 158.263 19.0716C158.263 20.9776 157.636 22.6013 156.383 23.9426C155.148 25.284 153.612 25.9546 151.777 25.9546C150.806 25.9546 149.897 25.7428 149.05 25.3193C148.221 24.878 147.577 24.3221 147.118 23.6514V31.2228ZM148.203 22.4866C149.05 23.4044 150.127 23.8632 151.433 23.8632C152.739 23.8632 153.815 23.4044 154.663 22.4866C155.51 21.5689 155.933 20.4305 155.933 19.0716C155.933 17.7126 155.51 16.5742 154.663 15.6565C153.815 14.7387 152.739 14.2799 151.433 14.2799C150.127 14.2799 149.05 14.7387 148.203 15.6565C147.356 16.5742 146.932 17.7126 146.932 19.0716C146.932 20.4305 147.356 21.5689 148.203 22.4866Z" fill="#97A3B7"/>
<path d="M140.062 25.69L132.887 19.0716V25.69H130.611V5.83496H132.887V17.6156L138.659 12.4533H141.677L135.164 18.3039L143.133 25.69H140.062Z" fill="#97A3B7"/>
<path d="M120.649 25.6903V12.4537H122.926V15.0216C123.173 14.2097 123.65 13.5567 124.356 13.0625C125.079 12.5684 125.838 12.3213 126.632 12.3213C127.021 12.3213 127.365 12.3566 127.665 12.4272V14.7833C127.347 14.6421 126.932 14.5715 126.42 14.5715C125.503 14.5715 124.691 14.9686 123.985 15.7628C123.279 16.557 122.926 17.6777 122.926 19.1249V25.6903H120.649Z" fill="#97A3B7"/>
<path d="M110.517 25.9546C108.523 25.9546 106.864 25.2928 105.54 23.9691C104.234 22.6278 103.581 20.9953 103.581 19.0716C103.581 17.1478 104.234 15.5241 105.54 14.2005C106.864 12.8591 108.523 12.1885 110.517 12.1885C112.494 12.1885 114.135 12.8591 115.441 14.2005C116.765 15.5241 117.427 17.1478 117.427 19.0716C117.427 20.9953 116.765 22.6278 115.441 23.9691C114.135 25.2928 112.494 25.9546 110.517 25.9546ZM107.182 22.4601C108.047 23.3779 109.158 23.8368 110.517 23.8368C111.876 23.8368 112.979 23.3779 113.827 22.4601C114.674 21.5424 115.097 20.4129 115.097 19.0716C115.097 17.7302 114.674 16.6007 113.827 15.683C112.979 14.7652 111.876 14.3063 110.517 14.3063C109.158 14.3063 108.047 14.7652 107.182 15.683C106.335 16.6007 105.911 17.7302 105.911 19.0716C105.911 20.4129 106.335 21.5424 107.182 22.4601Z" fill="#97A3B7"/>
<path d="M95.4325 25.6899L90.8261 12.9298L86.2462 25.6899H84.0489L78.9131 6.89385H81.481L85.3991 21.5601L90.8261 6.57617L96.2531 21.5601L100.198 6.89385H102.766L97.6298 25.6899H95.4325Z" fill="#97A3B7"/>
<path d="M203.673 25.9546C201.643 25.9546 199.993 25.3016 198.722 23.9956C197.452 22.6896 196.816 21.0482 196.816 19.0716C196.816 17.1125 197.46 15.48 198.749 14.174C200.037 12.8503 201.687 12.1885 203.699 12.1885C205.482 12.1885 206.973 12.7885 208.173 13.9887C209.391 15.1711 210 16.786 210 18.8333C210 19.098 209.991 19.3275 209.974 19.5216H199.119C199.155 20.757 199.596 21.7895 200.443 22.619C201.308 23.4485 202.393 23.8632 203.699 23.8632C205.552 23.8632 206.929 23.0955 207.829 21.56L209.629 22.8043C208.341 24.9045 206.356 25.9546 203.673 25.9546ZM199.278 17.6685H207.67C207.494 16.6095 207.026 15.7712 206.267 15.1535C205.526 14.5181 204.644 14.2005 203.62 14.2005C202.579 14.2005 201.643 14.5181 200.814 15.1535C200.002 15.7712 199.49 16.6095 199.278 17.6685Z" fill="#97A3B7"/>
</svg>
